<svg width="36" height="31" viewBox="0 0 36 31" fill="none" xmlns="http://www.w3.org/2000/svg">
<path fill-rule="evenodd" clip-rule="evenodd" d="M18.9017 0.147109C18.5053 0.0341727 18.0873 0.0342766 17.6909 0.147544C16.8469 0.388717 15.9949 0.61209 15.1399 0.836226C11.3247 1.83646 7.12384 2.93778 3.53033 5.88219L1.83604 7.27045C0.484975 8.37747 0.485686 10.5455 1.83792 11.6514L3.5048 13.0146C4.73625 14.0217 6.01965 14.8095 7.33487 15.452V23.0184C7.33487 24.8708 8.46662 26.5336 10.1855 27.2064L16.6971 29.7555C17.7429 30.1648 18.9036 30.1648 19.9494 29.7555L26.461 27.2064C28.1799 26.5336 29.3116 24.8708 29.3116 23.0184V15.4655C30.6181 14.8265 31.893 14.0427 33.1162 13.0404L33.3814 12.8231V20.9033C33.3814 21.5804 33.928 22.1293 34.6023 22.1293C35.2766 22.1293 35.8232 21.5804 35.8232 20.9033V9.46131C35.8229 8.64269 35.4847 7.8242 34.8086 7.27125L33.1417 5.90803C29.522 2.94779 25.1447 1.80145 21.4475 0.833251C20.5944 0.609842 19.7442 0.387175 18.9017 0.147109ZM12.2986 15.6927C11.6802 15.4227 10.961 15.7071 10.692 16.3279C10.4231 16.9488 10.7063 17.6711 11.3247 17.9411C13.4049 18.8496 15.5582 19.5928 17.765 20.1615C18.1495 20.2606 18.5529 20.2606 18.9375 20.1612C21.1383 19.5924 23.2853 18.8491 25.3588 17.9405C25.9769 17.6697 26.2592 16.9471 25.9896 16.3266C25.7199 15.706 25.0002 15.4225 24.3822 15.6933C22.4343 16.5468 20.4176 17.2456 18.3505 17.7811C16.277 17.2455 14.2535 16.5465 12.2986 15.6927Z" fill="#3C1361"/>
</svg>
