<svg width="39" height="39" viewBox="0 0 39 39" fill="none" xmlns="http://www.w3.org/2000/svg">
<path fill-rule="evenodd" clip-rule="evenodd" d="M5.28125 19.5C5.28125 11.6472 11.6472 5.28125 19.5 5.28125C27.3528 5.28125 33.7187 11.6472 33.7187 19.5C33.7187 27.3528 27.3528 33.7187 19.5 33.7187C11.6472 33.7187 5.28125 27.3528 5.28125 19.5ZM17.631 15.1267C16.1139 16.3748 15.1004 18.1302 14.7781 20.0681L13.7109 26.4837C13.4645 27.9649 15.1868 28.9592 16.3463 28.0052L21.3688 23.8732C22.8859 22.6252 23.8994 20.8697 24.2217 18.9319L25.2889 12.5162C25.5352 11.0351 23.813 10.0408 22.6535 10.9947L17.631 15.1267Z" fill="#3C1361"/>
<path d="M17.0625 19.5C17.0625 18.1538 18.1538 17.0625 19.5 17.0625C20.8462 17.0625 21.9375 18.1538 21.9375 19.5C21.9375 20.8462 20.8462 21.9375 19.5 21.9375C18.1538 21.9375 17.0625 20.8462 17.0625 19.5Z" fill="#3C1361"/>
</svg>
