<svg width="32" height="30" viewBox="0 0 32 30" fill="none" xmlns="http://www.w3.org/2000/svg">
<path d="M28.5191 4.09342H7.22469L5.40525 0.832178C5.20102 0.46612 4.81468 0.239258 4.39551 0.239258H2.08301C1.44443 0.239258 0.926758 0.756929 0.926758 1.39551C0.926758 2.03409 1.44443 2.55176 2.08301 2.55176H3.71656L5.51213 5.77022L9.65316 14.9327L9.6574 14.9421L10.0221 15.7491L5.86451 20.1839C5.56556 20.5027 5.47198 20.9629 5.62265 21.3732C5.77332 21.7836 6.14248 22.0738 6.57675 22.1235L10.3664 22.5566C15.1065 23.0983 19.8929 23.0983 24.633 22.5566L28.4227 22.1235C29.0571 22.0509 29.5126 21.4778 29.4401 20.8434C29.3676 20.2089 28.7945 19.7534 28.1601 19.8259L24.3705 20.259C19.8048 20.7808 15.1946 20.7808 10.6289 20.259L9.12502 20.0871L12.1766 16.8322C12.2061 16.8007 12.2335 16.768 12.2588 16.7342L13.4194 16.8852C15.0457 17.0969 16.6897 17.1383 18.3247 17.009C22.1379 16.7074 25.6721 14.8929 28.1394 11.9699L29.0306 10.9141C29.0606 10.8787 29.0883 10.8415 29.1138 10.8027L30.7747 8.27148C31.952 6.47734 30.665 4.09342 28.5191 4.09342Z" fill="#3C1361"/>
<path d="M9.02051 24.5205C7.74335 24.5205 6.70801 25.5558 6.70801 26.833C6.70801 28.1102 7.74335 29.1455 9.02051 29.1455C10.2977 29.1455 11.333 28.1102 11.333 26.833C11.333 25.5558 10.2977 24.5205 9.02051 24.5205Z" fill="#3C1361"/>
<path d="M23.6663 26.833C23.6663 25.5558 24.7017 24.5205 25.9788 24.5205C27.256 24.5205 28.2913 25.5558 28.2913 26.833C28.2913 28.1102 27.256 29.1455 25.9788 29.1455C24.7017 29.1455 23.6663 28.1102 23.6663 26.833Z" fill="#3C1361"/>
</svg>
