<svg width="14" height="16" viewBox="0 0 14 16" fill="none" xmlns="http://www.w3.org/2000/svg">
<g clip-path="url(#clip0_498_6289)">
<path d="M1.84341 0C1.92912 0.025 2.01513 0.04875 2.10024 0.075625C2.77869 0.29 3.29115 0.945313 3.35513 1.67875C3.36419 1.78188 3.37686 1.88438 3.38984 2.00563H3.5848C6.51249 2.00563 9.43997 2.00563 12.3672 2.00563C13.0614 2.00563 13.5745 2.31219 13.8747 2.97094C14.0404 3.33594 14.0027 3.72094 13.9677 4.10719C13.8675 5.21094 13.773 6.315 13.6747 7.41969C13.643 7.77188 13.6318 8.12906 13.5669 8.475C13.4012 9.36063 12.6591 9.97125 11.7727 9.97188C9.2778 9.97417 6.7829 9.97417 4.288 9.97188H4.11115C4.03419 10.4797 4.39514 10.9778 4.87229 11.0344C4.95745 11.0428 5.04299 11.0463 5.12852 11.0447C7.90027 11.0447 10.6719 11.0447 13.4435 11.0447C13.751 11.0447 13.9164 11.1519 13.9828 11.3913C13.9996 11.4526 14.004 11.5169 13.9956 11.58C13.9871 11.6432 13.9661 11.7038 13.9339 11.7581C13.9016 11.8124 13.8588 11.8592 13.8081 11.8955C13.7575 11.9317 13.7001 11.9567 13.6396 11.9688C13.5798 11.9785 13.5192 11.9826 13.4586 11.9809C10.6566 11.9809 7.8547 11.9809 5.05277 11.9809C4.16668 11.9809 3.41911 11.3969 3.24709 10.5369C3.165 10.1263 3.15111 9.70063 3.11339 9.28094C3.01279 8.16698 2.9145 7.0524 2.81853 5.93719C2.72376 4.85385 2.6295 3.77052 2.53574 2.68719C2.50737 2.36594 2.48172 2.04406 2.4452 1.72344C2.41863 1.50755 2.31739 1.30896 2.16024 1.16445C2.00308 1.01994 1.80067 0.939307 1.5905 0.9375C1.23346 0.9375 0.875224 0.9375 0.519098 0.9375C0.247476 0.9375 0.0663944 0.805 0.0123718 0.56625C-0.0386327 0.34375 0.0691106 0.152188 0.316287 0.0228125C0.323832 0.01875 0.328057 0.0078125 0.334093 0H1.84341ZM7.81003 6.31438L7.76688 6.34563C7.57885 6.14469 7.39596 5.93781 7.2007 5.74406C7.11691 5.6593 7.00442 5.61184 6.88727 5.61184C6.77013 5.61184 6.65764 5.6593 6.57385 5.74406C6.53048 5.78623 6.49578 5.83702 6.47182 5.8934C6.44785 5.94978 6.43512 6.01059 6.43439 6.07218C6.43366 6.13377 6.44494 6.19489 6.46755 6.25186C6.49017 6.30883 6.52365 6.36049 6.56601 6.40375C7.02052 6.88292 7.47936 7.35781 7.94253 7.82844C8.13206 8.02094 8.38829 8.02156 8.57842 7.82844C9.04199 7.35813 9.49922 6.88156 9.95555 6.40406C10.0124 6.34772 10.0529 6.27606 10.0725 6.19716C10.0921 6.11827 10.0901 6.03526 10.0666 5.9575C9.97033 5.60594 9.56803 5.49531 9.30939 5.75469C9.11986 5.94469 8.94119 6.14656 8.75769 6.34313L8.71544 6.31969V6.15563C8.71544 5.64021 8.71544 5.12469 8.71544 4.60906C8.71686 4.55189 8.71465 4.49468 8.7088 4.43781C8.6753 4.1825 8.48245 4.01156 8.24312 4.02125C8.12854 4.02433 8.0196 4.07343 7.93934 4.15816C7.85909 4.2429 7.8138 4.35663 7.81305 4.47531C7.80551 4.72531 7.81034 4.97531 7.81034 5.22531C7.80993 5.58802 7.80983 5.95104 7.81003 6.31438Z" fill="#8B6EAE"/>
<path d="M11.382 16.0001C11.2045 15.9323 11.0138 15.8882 10.852 15.792C10.5611 15.6205 10.3391 15.347 10.226 15.0208C10.1129 14.6947 10.1163 14.3374 10.2354 14.0135C10.4705 13.3613 11.1285 12.9604 11.7831 13.071C12.1133 13.1245 12.4148 13.2966 12.6347 13.5572C12.8546 13.8177 12.9789 14.1502 12.9858 14.4962C12.9926 14.8421 12.8817 15.1796 12.6723 15.4493C12.4629 15.7191 12.1685 15.9039 11.8407 15.9713C11.8179 15.9787 11.7957 15.9884 11.7746 16.0001H11.382Z" fill="#8B6EAE"/>
<path d="M5.55585 15.9999C5.27759 15.9259 5.0126 15.8252 4.795 15.6187C4.55958 15.3969 4.40302 15.0996 4.3505 14.7746C4.29798 14.4496 4.35256 14.1157 4.50544 13.8267C4.65833 13.5376 4.90065 13.3102 5.19344 13.181C5.48623 13.0519 5.81247 13.0284 6.1197 13.1144C6.42694 13.2004 6.69731 13.3909 6.88736 13.6552C7.0774 13.9196 7.17606 14.2424 7.16748 14.5718C7.1589 14.9012 7.04358 15.2181 6.84006 15.4715C6.63653 15.7248 6.35663 15.8999 6.04537 15.9687C6.01247 15.9762 5.98078 15.9902 5.94849 15.9999H5.55585Z" fill="#8B6EAE"/>
</g>
<defs>
<clipPath id="clip0_498_6289">
<rect width="14" height="16" fill="white"/>
</clipPath>
</defs>
</svg>
