<svg width="18" height="18" viewBox="0 0 18 18" fill="none" xmlns="http://www.w3.org/2000/svg">
<path d="M4.31673 0.768575C7.40429 0.423496 10.5957 0.423496 13.6832 0.768575C14.8424 0.898133 15.8601 1.52501 16.5038 2.4354L8.5 10.4392L6.03033 7.96949C5.73744 7.6766 5.26256 7.6766 4.96967 7.96949C4.67678 8.26239 4.67678 8.73726 4.96967 9.03016L7.96967 12.0302C8.26256 12.323 8.73744 12.323 9.03033 12.0302L17.1458 3.91472C17.1682 4.02429 17.1862 4.13554 17.1994 4.2483C17.5686 7.40523 17.5686 10.5944 17.1994 13.7513C16.9845 15.5883 15.5096 17.0269 13.6832 17.2311C10.5957 17.5761 7.40429 17.5761 4.31673 17.2311C2.49035 17.0269 1.01545 15.5883 0.800605 13.7513C0.431374 10.5944 0.431374 7.40523 0.800605 4.2483C1.01545 2.41134 2.49035 0.9727 4.31673 0.768575Z" fill="#3C1361"/>
</svg>
