<svg width="85" height="75" viewBox="0 0 85 75" fill="none" xmlns="http://www.w3.org/2000/svg">
<g clip-path="url(#clip0_645_7746)">
<path d="M0 50.3306C0.691976 48.45 2.07593 47.8113 4.01435 47.8491C8.3015 47.9181 12.5886 47.8692 16.878 47.8692H17.8273V38.1169C16.9401 37.8944 16.053 37.703 15.1969 37.4315C11.078 36.1457 7.51509 33.4968 5.08973 29.9173C2.66436 26.3379 1.51977 22.0391 1.84277 17.7228C2.16577 13.4065 3.9373 9.32751 6.86819 6.15162C9.79908 2.97574 13.7162 0.89054 17.9803 0.236373C23.0038 -0.529206 27.6458 0.567975 31.8442 3.4834C32.4697 3.92851 32.7602 4.46263 32.4297 5.18593C32.1503 5.80017 31.6047 5.99602 30.9748 5.8202C30.6914 5.71427 30.4264 5.56405 30.1897 5.3751C27.9643 3.86488 25.4068 2.91926 22.7369 2.61947C20.067 2.31967 17.3645 2.67465 14.8615 3.65393C12.3584 4.6332 10.1297 6.2075 8.36666 8.24162C6.60361 10.2757 5.35896 12.7089 4.7396 15.3321C2.41083 24.9908 9.27515 34.7764 19.1003 35.6689C21.6531 35.8914 24.2391 35.7957 26.8119 35.8135C29.6951 35.8336 32.5562 35.8135 35.6701 35.8135C35.293 35.4085 35.0535 35.1459 34.8007 34.8833C34.1796 34.2512 33.5498 33.6258 32.9266 32.996C32.0394 32.1058 32.0261 31.5672 32.8778 30.6614C34.9848 28.473 36.4405 25.7374 37.0806 22.7631C38.0033 18.4478 37.3268 14.3884 35.1045 10.585C34.9359 10.2979 34.7386 10.0264 34.5811 9.73489C34.2151 9.0472 34.3859 8.36397 34.998 7.99898C35.1319 7.90902 35.2831 7.84821 35.4418 7.82045C35.6005 7.79269 35.7632 7.7986 35.9195 7.83781C36.0758 7.87702 36.2222 7.94865 36.3492 8.04809C36.4762 8.14753 36.5811 8.27257 36.657 8.41516C37.4466 9.84171 38.2583 11.2727 38.8372 12.7883C39.3761 14.1971 39.6267 15.7193 40.0371 17.3217C41.146 17.3217 42.3858 17.3595 43.6211 17.3217C44.1882 17.2868 44.7556 17.383 45.2797 17.603C45.8038 17.8229 46.2706 18.1607 46.6441 18.5902C47.5312 19.5472 48.4539 20.4597 49.1791 21.2052C50.5276 20.7178 51.6698 20.0925 52.8808 19.91C55.2871 19.5405 57.6026 20.8714 58.6827 23.0702C58.9622 23.6377 59.2749 23.8002 59.8782 23.7935C62.3178 23.7579 64.7464 23.7757 67.1816 23.7801C67.4856 23.7696 67.7898 23.786 68.0909 23.8291C68.3691 23.8799 68.6208 24.0266 68.8027 24.2438C68.9845 24.461 69.085 24.7352 69.0869 25.0189C69.0887 25.3025 68.9918 25.578 68.8127 25.7976C68.6337 26.0171 68.3839 26.1671 68.1065 26.2215C67.7785 26.2716 67.4465 26.2895 67.1151 26.2749C64.5468 26.2749 61.9763 26.2749 59.3791 26.2749C59.2727 26.7089 59.195 27.0828 59.0864 27.4456C58.6506 28.9228 57.6542 30.1693 56.3117 30.9168C54.9692 31.6642 53.388 31.8529 51.9082 31.4421C50.4285 31.0314 49.1686 30.0541 48.3998 28.7206C47.631 27.3871 47.4146 25.804 47.7974 24.312C47.9615 23.6956 47.8994 23.2905 47.407 22.8788C46.8841 22.4661 46.4128 21.9916 46.0031 21.4656C44.9851 20.0724 43.6655 19.5695 41.9843 19.8143C41.3633 19.9055 40.7179 19.8298 39.9883 19.8298C39.7443 24.3499 38.214 28.338 35.1733 31.8766C35.8652 32.5198 36.5417 33.1318 37.1982 33.7616C38.0676 34.5939 38.3337 35.5976 37.8791 36.7193C37.4244 37.841 36.4951 38.3195 35.3085 38.3195H20.4177V47.8647H41.4254C41.6738 47.8647 41.9245 47.8536 42.1729 47.8647C42.9558 47.9248 43.4725 48.4189 43.4814 49.1043C43.4903 49.7898 42.9469 50.3373 42.1196 50.3506C40.9286 50.3706 39.7399 50.3506 38.5511 50.3506H4.27162C4.07945 50.326 3.88494 50.326 3.69276 50.3506C3.31572 50.4485 2.94977 50.5932 2.58382 50.72C2.70802 51.085 2.74795 51.5168 2.97195 51.8039C4.08089 53.2282 5.22531 54.6147 6.36086 56.0146C10.6399 61.289 14.9145 66.5658 19.1846 71.8447C19.336 72.0539 19.5369 72.2221 19.7692 72.334C20.0015 72.4459 20.2579 72.498 20.5153 72.4856C40.4348 72.4723 60.3543 72.4686 80.2737 72.4745H81.0411C80.8703 72.2119 80.7727 72.0294 80.6463 71.8692C75.0085 64.9152 69.3736 57.9582 63.7417 50.9982C63.5808 50.7777 63.3674 50.6011 63.121 50.4844C62.8746 50.3678 62.6031 50.3149 62.3311 50.3306C57.8954 50.3506 53.4774 50.3306 49.0505 50.3306C48.7466 50.3306 48.3629 50.4241 48.1633 50.2772C47.7752 49.9968 47.2607 49.5939 47.223 49.2022C47.1853 48.8106 47.6089 48.312 47.9504 47.9782C48.1412 47.7957 48.5781 47.838 48.9063 47.838C53.4153 47.838 57.9242 47.838 62.4354 47.8224C63.0571 47.8012 63.6746 47.9319 64.2348 48.2033C64.795 48.4747 65.2811 48.8786 65.6513 49.3803C71.0939 56.134 76.5543 62.8751 82.0325 69.6036C82.1367 69.7304 82.2543 69.8551 82.4561 70.1066C82.4827 69.7549 82.5138 69.5346 82.5138 69.312C82.5138 55.3476 82.5138 41.3833 82.5138 27.4189C82.5138 26.3973 82.3763 26.2505 81.376 26.2482C79.1337 26.2482 76.8937 26.2482 74.6514 26.2482C74.4027 26.2568 74.1538 26.2486 73.9062 26.2238C73.2009 26.1281 72.7973 25.6919 72.7973 24.9975C72.7973 24.3031 73.1943 23.8358 73.9062 23.7868C74.6181 23.7379 75.3434 23.7534 76.062 23.7534C77.9161 23.7534 79.7703 23.7312 81.6244 23.7534C83.7669 23.7846 84.9956 25.0576 84.9956 27.2163C84.9956 42.568 84.9956 57.9241 84.9956 73.2846C84.9956 74.5732 84.5941 74.9782 83.3144 74.9782C62.3185 74.9782 41.3227 74.9782 20.3268 74.9782C19.7603 74.9974 19.1975 74.8801 18.6854 74.6361C18.1734 74.3922 17.727 74.0287 17.3837 73.5761C11.9277 66.8432 6.46806 60.1073 1.0047 53.3684C0.59439 52.861 0.339335 52.2356 0 51.6637V50.3306ZM50.0995 25.7519C50.1049 26.4223 50.3084 27.0759 50.6844 27.63C51.0603 28.1841 51.5918 28.6137 52.2113 28.8643C52.8309 29.115 53.5107 29.1755 54.1645 29.038C54.8183 28.9006 55.4168 28.5714 55.884 28.0923C56.3512 27.6132 56.6661 27.0057 56.7888 26.3467C56.9115 25.6878 56.8365 25.0072 56.5733 24.3911C56.31 23.775 55.8704 23.2512 55.3102 22.8861C54.75 22.521 54.0943 22.331 53.4264 22.3402C52.5364 22.3566 51.6887 22.7236 51.0662 23.362C50.4437 24.0003 50.0965 24.8588 50.0995 25.7519Z" fill="#8B6EAE"/>
<path d="M20.9056 24.3757C20.034 25.2659 19.2976 26.0671 18.5258 26.8237C16.9445 28.3816 14.6711 28.4039 13.1763 26.9083C11.6814 25.4128 11.7147 23.1138 13.2473 21.5359C13.9991 20.7614 14.7998 20.0315 15.7601 19.0878C14.8175 18.2132 13.9015 17.4632 13.0987 16.6019C12.6565 16.1332 12.3438 15.5567 12.1916 14.9296C12.0394 14.3024 12.0529 13.6463 12.2307 13.026C12.4086 12.4057 12.7446 11.8427 13.2057 11.3926C13.6667 10.9425 14.2368 10.6208 14.8597 10.4595C15.475 10.279 16.1277 10.2691 16.7482 10.4309C17.3687 10.5927 17.934 10.9203 18.3839 11.3786C19.2 12.1687 19.9807 12.9944 20.8923 13.9202C21.7062 13.0812 22.4781 12.2644 23.2743 11.4721C24.2989 10.4528 25.5365 10.0923 26.9293 10.4684C27.5548 10.632 28.1266 10.9571 28.588 11.4112C29.0493 11.8654 29.3841 12.4329 29.5591 13.0573C29.734 13.6816 29.743 14.341 29.5852 14.9699C29.4273 15.5988 29.1081 16.1753 28.6593 16.642C27.8719 17.4877 26.9892 18.2488 26.0621 19.1324C26.9493 19.9936 27.7255 20.7303 28.4752 21.4981C30.0721 23.1316 30.1098 25.4105 28.5839 26.9239C27.058 28.4373 24.8135 28.3749 23.1767 26.7592C22.4381 26.0114 21.7351 25.237 20.9056 24.3757ZM15.7623 25.6798C16.2259 25.3749 16.6051 25.1991 16.8912 24.9254C17.8316 24.0352 18.7365 23.0893 19.6569 22.168C20.6372 21.191 21.1629 21.1976 22.1609 22.1969C23.0813 23.1183 23.9929 24.0508 24.9199 24.9632C25.5853 25.6175 26.2751 25.6732 26.8207 25.1524C27.3663 24.6316 27.3441 23.8838 26.6587 23.185C25.6895 22.1947 24.7004 21.2243 23.7289 20.2362C22.9815 19.4729 22.9815 18.8497 23.7289 18.0864C24.6782 17.116 25.6474 16.1635 26.5989 15.1932C27.3352 14.4454 27.404 13.7332 26.8207 13.168C26.2728 12.6405 25.5587 12.7229 24.8601 13.415C23.9929 14.2718 23.139 15.142 22.2784 16.0055C21.103 17.1828 20.6927 17.1873 19.5394 16.0322C18.63 15.1331 17.7429 14.2229 16.8314 13.3304C16.1882 12.7006 15.4585 12.6628 14.9329 13.1991C14.4072 13.7355 14.4604 14.4543 15.0992 15.1042C16.0107 16.0344 16.9378 16.9491 17.8538 17.8727C18.8873 18.9143 18.8873 19.4016 17.8538 20.4476C16.8979 21.4113 15.8888 22.3304 15.0083 23.3586C14.8685 23.5635 14.7731 23.7955 14.728 24.0397C14.6829 24.2838 14.6892 24.5347 14.7466 24.7763C14.8375 25.1257 15.3742 25.3571 15.7623 25.6798Z" fill="#8B6EAE"/>
<path d="M60.8319 69.3782C58.206 69.3782 55.58 69.3515 52.9541 69.3782C52.3738 69.4105 51.7951 69.2918 51.2741 69.0337C50.753 68.7756 50.3072 68.3868 49.9799 67.9049C48.7201 66.1846 47.4182 64.4955 46.1208 62.8041C45.5552 62.0674 45.298 61.2952 45.726 60.4116C46.1541 59.5281 46.9503 59.2032 47.9084 59.2054C53.3008 59.2054 58.6917 59.2054 64.0811 59.2054C64.6212 59.1851 65.1577 59.301 65.6416 59.5424C66.1255 59.7839 66.5414 60.1431 66.8513 60.5874C68.1376 62.3233 69.4425 64.0452 70.7658 65.7529C71.3558 66.5162 71.6175 67.3107 71.1672 68.2187C70.717 69.1268 69.9186 69.3805 68.9494 69.3738C66.2502 69.3649 63.54 69.3782 60.8319 69.3782ZM68.4703 66.879C67.2438 65.2588 66.1282 63.8211 65.0592 62.3501C64.9158 62.1323 64.7164 61.9574 64.4822 61.8439C64.248 61.7303 63.9876 61.6822 63.7285 61.7047C58.9201 61.7225 54.1118 61.7047 49.3123 61.718C49.0794 61.718 48.8466 61.7514 48.4806 61.7781C49.6428 63.3159 50.7495 64.7269 51.7919 66.1846C52.1778 66.7254 52.6125 66.8946 53.2513 66.8901C57.2856 66.8679 61.3221 66.879 65.3564 66.879H68.4703Z" fill="#8B6EAE"/>
<path d="M74.5783 16.484C74.5833 17.13 74.4599 17.7706 74.2152 18.3683C73.9706 18.9659 73.6096 19.5086 73.1533 19.9645C72.6971 20.4204 72.1549 20.7804 71.5583 21.0235C70.9617 21.2666 70.3228 21.3878 69.679 21.3801C68.392 21.3761 67.1581 20.8648 66.2433 19.9565C65.3285 19.0481 64.806 17.8153 64.7886 16.524C64.7902 15.2194 65.3025 13.9676 66.2152 13.0384C67.1279 12.1092 68.3679 11.5771 69.6679 11.5567C70.3131 11.5552 70.9523 11.6816 71.5487 11.9287C72.1452 12.1758 72.6871 12.5387 73.1433 12.9966C73.5996 13.4544 73.9612 13.9982 74.2075 14.5966C74.4537 15.1951 74.5797 15.8365 74.5783 16.484ZM72.0876 16.5285C72.0944 16.2086 72.0376 15.8906 71.9206 15.593C71.8037 15.2953 71.6288 15.0241 71.4063 14.7949C71.1837 14.5658 70.9179 14.3835 70.6244 14.2585C70.3309 14.1335 70.0156 14.0684 69.6967 14.067C69.0678 14.0775 68.4669 14.33 68.0183 14.7724C67.5696 15.2147 67.3074 15.8131 67.2859 16.4439C67.2821 16.764 67.3416 17.0817 67.4611 17.3785C67.5805 17.6754 67.7575 17.9455 67.9817 18.1732C68.206 18.4009 68.473 18.5817 68.7674 18.7051C69.0618 18.8285 69.3777 18.892 69.6967 18.892C70.0081 18.8946 70.317 18.8355 70.6056 18.718C70.8941 18.6005 71.1567 18.427 71.3783 18.2074C71.5998 17.9877 71.7759 17.7264 71.8965 17.4383C72.0171 17.1501 72.0798 16.841 72.0809 16.5285H72.0876Z" fill="#8B6EAE"/>
<path d="M7.55404 42.6715C7.23241 43.1209 6.8851 43.5511 6.51386 43.9601C5.95274 44.5054 5.2275 44.512 4.73956 44.0447C4.1984 43.5284 4.19397 42.8251 4.77948 42.2042C5.11882 41.8459 5.52247 41.5365 6.0969 41.0447C5.63199 40.7058 5.18762 40.3395 4.76618 39.9475C4.20506 39.36 4.21171 38.6901 4.71295 38.1671C5.21419 37.6441 5.92169 37.6508 6.48725 38.1671C6.85842 38.5519 7.21003 38.9552 7.54074 39.3755C7.98431 38.9304 8.33917 38.5988 8.69403 38.2628C9.31504 37.6842 10.0248 37.633 10.5393 38.1204C11.1004 38.65 11.0827 39.3622 10.4506 40.0232C10.1268 40.3592 9.74752 40.6419 9.17975 41.1359C9.58896 41.4152 9.98146 41.7184 10.3552 42.0439C11.0694 42.7539 11.127 43.4371 10.577 44.0046C10.027 44.5721 9.29729 44.492 8.61641 43.8221C8.31034 43.5373 8.04863 43.2146 7.55404 42.6715Z" fill="#8B6EAE"/>
<path d="M61.4152 9.7704C62.4864 11.0901 62.6062 11.6087 62.0051 12.2185C61.4351 12.7904 60.9228 12.6636 59.5876 11.671C58.2148 12.6725 57.6625 12.7837 57.1125 12.1673C56.5625 11.5508 56.6689 11.0256 57.647 9.91283C57.3327 9.31846 57.0586 8.70357 56.8264 8.07233C56.7643 7.87203 57.026 7.50482 57.2278 7.30675C57.7801 6.76372 58.3168 6.91951 59.5588 7.91431C60.9738 6.8928 61.4861 6.78375 62.0406 7.38464C62.5951 7.98553 62.4842 8.55304 61.4152 9.7704Z" fill="#8B6EAE"/>
<path d="M38.6819 69.3762C37.4931 69.3762 36.3043 69.3896 35.1156 69.3762C34.1641 69.3629 33.6695 68.9311 33.6651 68.1522C33.6606 67.3732 34.1685 66.897 35.0912 66.8903C37.4983 66.8725 39.9039 66.8725 42.3081 66.8903C43.2152 66.8903 43.7387 67.4066 43.7209 68.17C43.7032 68.9333 43.2108 69.3606 42.3303 69.374C41.1149 69.3918 39.8973 69.3762 38.6819 69.3762Z" fill="#8B6EAE"/>
<path d="M38.1473 62.7599C38.6996 62.7599 39.2562 62.7332 39.7996 62.7599C39.9534 62.7577 40.106 62.7869 40.2481 62.8457C40.3903 62.9046 40.519 62.9918 40.6265 63.1021C40.7339 63.2125 40.8179 63.3436 40.8733 63.4876C40.9286 63.6315 40.9542 63.7853 40.9485 63.9394C40.9707 64.6271 40.5825 65.1457 39.875 65.1813C38.6951 65.2391 37.5063 65.2391 36.3264 65.1813C35.6189 65.1457 35.2352 64.6227 35.2596 63.9372C35.2545 63.7829 35.2807 63.6292 35.3366 63.4853C35.3925 63.3415 35.4769 63.2106 35.5847 63.1005C35.6926 62.9904 35.8216 62.9034 35.964 62.8449C36.1064 62.7863 36.2591 62.7574 36.4129 62.7599C36.9896 62.7399 37.5684 62.7599 38.1473 62.7599Z" fill="#8B6EAE"/>
</g>
<defs>
<clipPath id="clip0_645_7746">
<rect width="85" height="75" fill="white"/>
</clipPath>
</defs>
</svg>
