<svg width="29" height="29" viewBox="0 0 29 29" fill="none" xmlns="http://www.w3.org/2000/svg">
<path fill-rule="evenodd" clip-rule="evenodd" d="M28.2885 4.89797C28.5688 5.32251 28.5221 5.89944 28.1484 6.27319L14.7428 19.6788C14.6054 19.8162 14.4338 19.9145 14.2458 19.9636L8.66268 21.4219C8.48059 21.4695 8.29289 21.4685 8.11653 21.4237C7.92904 21.3759 7.75437 21.2786 7.61289 21.1371C7.33832 20.8625 7.22991 20.463 7.32804 20.0873L8.78637 14.5041C8.82934 14.3396 8.90998 14.1771 9.02152 14.0497L22.4768 0.601602C22.5945 0.483821 22.7364 0.395671 22.8908 0.341962C23.0053 0.30214 23.1267 0.28125 23.2502 0.28125C23.5402 0.28125 23.8184 0.396484 24.0236 0.601602L28.1484 4.72639C28.2017 4.77978 28.2485 4.83732 28.2885 4.89797ZM25.8282 5.49979L23.2502 2.9218L10.8278 15.3441L9.9164 18.8336L13.4059 17.9221L25.8282 5.49979Z" fill="#3C1361"/>
<path d="M25.6438 22.0255C26.0425 18.6164 26.1694 15.1836 26.0244 11.7595C26.0175 11.5955 26.0791 11.436 26.1951 11.32L27.6292 9.88596C27.8055 9.70965 28.1067 9.82158 28.1232 10.0704C28.3929 14.1386 28.2907 18.2253 27.8165 22.2796C27.4715 25.2291 25.1027 27.5406 22.1685 27.8685C17.113 28.4335 11.8873 28.4335 6.83191 27.8685C3.89766 27.5406 1.52884 25.2291 1.18387 22.2796C0.579335 17.1108 0.579335 11.8892 1.18387 6.72042C1.52884 3.7709 3.89766 1.45942 6.83191 1.13148C10.667 0.702852 14.6 0.599383 18.4824 0.821068C18.7326 0.835356 18.8466 1.13813 18.6694 1.31534L17.222 2.76282C17.1072 2.87758 16.9498 2.93922 16.7876 2.93374C13.5407 2.82424 10.2718 2.94814 7.07488 3.30544C5.13515 3.52223 3.58131 5.05292 3.35656 6.97453C2.77177 11.9745 2.77177 17.0255 3.35656 22.0255C3.58131 23.9471 5.13514 25.4778 7.07488 25.6945C11.9688 26.2415 17.0315 26.2415 21.9255 25.6945C23.8652 25.4778 25.4191 23.9471 25.6438 22.0255Z" fill="#3C1361"/>
</svg>
