<svg width="34" height="25" viewBox="0 0 34 25" fill="none" xmlns="http://www.w3.org/2000/svg">
<g clip-path="url(#clip0_1_486)">
<path d="M34 7.19607V7.82264C33.9682 7.89048 33.9413 7.96063 33.9196 8.03254C33.3382 10.614 32.7579 13.1949 32.1786 15.7753C31.957 16.7606 31.7346 17.7451 31.5115 18.7382H2.50978C2.48076 18.6631 2.45543 18.5865 2.43388 18.5087C1.87379 16.016 1.31548 13.5231 0.758929 11.0299C0.51683 9.95845 0.255759 8.89093 0 7.81872V7.19216C0.543393 6.17399 1.11183 6.00716 2.09996 6.58674C4.37067 7.91976 6.64037 9.25382 8.90906 10.5889C9.04643 10.6672 9.18607 10.7456 9.33179 10.8286C9.43652 10.6719 9.51545 10.5545 9.5921 10.437C11.6807 7.21696 13.769 3.99536 15.8571 0.7722C16.5037 -0.22404 17.3871 -0.259285 18.1004 0.683698C20.1243 3.36227 22.1496 6.0411 24.1764 8.72019C24.7024 9.41568 25.2291 10.1096 25.7618 10.8137C25.8962 10.726 26.0032 10.6571 26.1079 10.5881C28.0629 9.24729 30.0174 7.90566 31.9714 6.56324C32.4579 6.22724 32.958 6.11446 33.4475 6.48492C33.6775 6.65723 33.8186 6.95484 34 7.19607Z" fill="#FFC700"/>
<path d="M4.55366 24.9999C3.95942 24.7484 3.69 24.2676 3.57388 23.6363C3.42892 22.8492 3.23616 22.0699 3.05933 21.2671H30.9522C30.7245 22.261 30.5105 23.2337 30.2692 24.1986C30.1622 24.62 29.7987 24.815 29.4488 24.9999H4.55366Z" fill="#FFC700"/>
</g>
<defs>
<clipPath id="clip0_1_486">
<rect width="34" height="25" fill="white"/>
</clipPath>
</defs>
</svg>
