<svg width="15" height="19" viewBox="0 0 15 19" fill="none" xmlns="http://www.w3.org/2000/svg">
<path fill-rule="evenodd" clip-rule="evenodd" d="M9.46875 1.1875C9.46875 1.06669 9.37081 0.96875 9.25 0.96875H3.125C1.79606 0.96875 0.71875 2.04607 0.71875 3.375V15.625C0.71875 16.9539 1.79606 18.0312 3.125 18.0312H11.875C13.2039 18.0312 14.2812 16.9539 14.2812 15.625V7.00368C14.2812 6.88286 14.1833 6.78493 14.0625 6.78493H10.125C9.76256 6.78493 9.46875 6.49111 9.46875 6.12868V1.1875ZM10.125 9.71875C10.4874 9.71875 10.7812 10.0126 10.7812 10.375C10.7812 10.7374 10.4874 11.0312 10.125 11.0312H4.875C4.51256 11.0312 4.21875 10.7374 4.21875 10.375C4.21875 10.0126 4.51256 9.71875 4.875 9.71875H10.125ZM10.125 13.2188C10.4874 13.2188 10.7812 13.5126 10.7812 13.875C10.7812 14.2374 10.4874 14.5312 10.125 14.5312H4.875C4.51256 14.5312 4.21875 14.2374 4.21875 13.875C4.21875 13.5126 4.51256 13.2188 4.875 13.2188H10.125Z" fill="#8B6EAE"/>
<path d="M10.7812 1.47112C10.7812 1.30968 10.9498 1.20718 11.0754 1.30859C11.1812 1.394 11.2763 1.49406 11.3575 1.60711L13.994 5.28027C14.054 5.36389 13.989 5.47243 13.886 5.47243H11C10.8792 5.47243 10.7812 5.37449 10.7812 5.25368V1.47112Z" fill="#8B6EAE"/>
</svg>
