<svg width="29" height="29" viewBox="0 0 29 29" fill="none" xmlns="http://www.w3.org/2000/svg">
<path fill-rule="evenodd" clip-rule="evenodd" d="M14.5 2.71875C7.99339 2.71875 2.71875 7.99339 2.71875 14.5C2.71875 21.0066 7.99339 26.2812 14.5 26.2812C21.0066 26.2812 26.2812 21.0066 26.2812 14.5C26.2812 7.99339 21.0066 2.71875 14.5 2.71875ZM0.28125 14.5C0.28125 6.6472 6.6472 0.28125 14.5 0.28125C22.3528 0.28125 28.7188 6.6472 28.7188 14.5C28.7188 22.3528 22.3528 28.7188 14.5 28.7188C6.6472 28.7188 0.28125 22.3528 0.28125 14.5Z" fill="#3C1361"/>
<path fill-rule="evenodd" clip-rule="evenodd" d="M12.6309 10.1267C11.1139 11.3748 10.1004 13.1302 9.77803 15.068L9.06638 19.3464C8.69682 21.5681 11.2801 23.0596 13.0194 21.6287L16.3688 18.8732C17.8858 17.6252 18.8993 15.8697 19.2217 13.9319L19.9333 9.65354C20.3029 7.43181 17.7195 5.94033 15.9802 7.37124L12.6309 10.1267ZM14.5 12.0625C13.1538 12.0625 12.0625 13.1538 12.0625 14.5C12.0625 15.8462 13.1538 16.9375 14.5 16.9375C15.8462 16.9375 16.9375 15.8462 16.9375 14.5C16.9375 13.1538 15.8462 12.0625 14.5 12.0625Z" fill="#3C1361"/>
</svg>
