<svg width="14" height="14" viewBox="0 0 14 14" fill="none" xmlns="http://www.w3.org/2000/svg">
<path d="M4.80105 0.421169C3.77843 0.306876 2.72165 0.306876 1.69903 0.421169C1.04114 0.494697 0.509164 1.01276 0.431582 1.67609C0.309264 2.7219 0.309264 3.77841 0.431582 4.82422C0.509164 5.48755 1.04114 6.00561 1.69903 6.07914C2.72165 6.19343 3.77843 6.19343 4.80105 6.07914C5.45893 6.00561 5.99091 5.48755 6.06849 4.82422C6.19081 3.77841 6.19081 2.7219 6.06849 1.67609C5.99091 1.01276 5.45893 0.494697 4.80105 0.421169Z" fill="#424242"/>
<path d="M4.80105 7.92117C3.77843 7.80687 2.72165 7.80687 1.69903 7.92117C1.04114 7.9947 0.509164 8.51276 0.431582 9.17609C0.309264 10.2219 0.309264 11.2784 0.431582 12.3242C0.509164 12.9875 1.04114 13.5056 1.69903 13.5791C2.72165 13.6934 3.77843 13.6934 4.80105 13.5791C5.45893 13.5056 5.99091 12.9875 6.06849 12.3242C6.19081 11.2784 6.19081 10.2219 6.06849 9.17609C5.99091 8.51276 5.45893 7.9947 4.80105 7.92117Z" fill="#424242"/>
<path d="M12.3011 0.421169C11.2784 0.306876 10.2217 0.306876 9.19904 0.421169C8.54115 0.494697 8.00918 1.01276 7.93159 1.67609C7.80928 2.7219 7.80928 3.77841 7.93159 4.82422C8.00918 5.48755 8.54115 6.00561 9.19904 6.07914C10.2217 6.19343 11.2784 6.19343 12.3011 6.07914C12.9589 6.00561 13.4909 5.48755 13.5685 4.82422C13.6908 3.77841 13.6908 2.7219 13.5685 1.67609C13.4909 1.01276 12.9589 0.494697 12.3011 0.421169Z" fill="#424242"/>
<path d="M12.3011 7.92117C11.2784 7.80687 10.2217 7.80687 9.19904 7.92117C8.54115 7.9947 8.00918 8.51276 7.93159 9.17609C7.80928 10.2219 7.80928 11.2784 7.93159 12.3242C8.00918 12.9875 8.54115 13.5056 9.19904 13.5791C10.2217 13.6934 11.2784 13.6934 12.3011 13.5791C12.9589 13.5056 13.4909 12.9875 13.5685 12.3242C13.6908 11.2784 13.6908 10.2219 13.5685 9.17609C13.4909 8.51276 12.9589 7.9947 12.3011 7.92117Z" fill="#424242"/>
</svg>
