<svg width="11" height="11" viewBox="0 0 11 11" fill="none" xmlns="http://www.w3.org/2000/svg">
<path d="M2.3617 0.425255C1.93109 0.377129 1.48631 0.377129 1.05571 0.425255C0.731435 0.461498 0.468645 0.716732 0.430248 1.04503C0.37872 1.48559 0.37872 1.93066 0.430248 2.37122C0.468645 2.69952 0.731435 2.95476 1.05571 2.991C1.48632 3.03912 1.93109 3.03912 2.3617 2.991C2.68598 2.95476 2.94876 2.69952 2.98716 2.37122C3.03869 1.93066 3.03869 1.48559 2.98716 1.04503C2.94876 0.716732 2.68598 0.461498 2.3617 0.425255Z" fill="#424242"/>
<path d="M6.15336 0.425255C5.72276 0.377129 5.27798 0.377129 4.84738 0.425255C4.5231 0.461498 4.26031 0.716732 4.22191 1.04503C4.17038 1.48559 4.17038 1.93066 4.22191 2.37122C4.26031 2.69952 4.5231 2.95476 4.84738 2.991C5.27798 3.03912 5.72276 3.03912 6.15336 2.991C6.47764 2.95476 6.74043 2.69952 6.77882 2.37122C6.83035 1.93066 6.83035 1.48559 6.77882 1.04503C6.74043 0.716732 6.47764 0.461498 6.15336 0.425255Z" fill="#424242"/>
<path d="M9.94503 0.425255C9.51442 0.377129 9.06964 0.377129 8.63904 0.425255C8.31476 0.461498 8.05197 0.716732 8.01358 1.04503C7.96205 1.48559 7.96205 1.93066 8.01358 2.37122C8.05197 2.69952 8.31476 2.95476 8.63904 2.991C9.06964 3.03912 9.51442 3.03912 9.94503 2.991C10.2693 2.95476 10.5321 2.69952 10.5705 2.37122C10.622 1.93066 10.622 1.48559 10.5705 1.04503C10.5321 0.716732 10.2693 0.461498 9.94503 0.425255Z" fill="#424242"/>
<path d="M2.3617 4.21692C1.93109 4.1688 1.48631 4.1688 1.05571 4.21692C0.731435 4.25316 0.468645 4.5084 0.430248 4.83669C0.37872 5.27726 0.37872 5.72233 0.430248 6.16289C0.468645 6.49119 0.731435 6.74642 1.05571 6.78266C1.48632 6.83079 1.93109 6.83079 2.3617 6.78266C2.68598 6.74642 2.94876 6.49119 2.98716 6.16289C3.03869 5.72233 3.03869 5.27726 2.98716 4.83669C2.94876 4.5084 2.68598 4.25316 2.3617 4.21692Z" fill="#424242"/>
<path d="M6.15336 4.21692C5.72276 4.1688 5.27798 4.1688 4.84738 4.21692C4.5231 4.25316 4.26031 4.5084 4.22191 4.83669C4.17038 5.27726 4.17038 5.72233 4.22191 6.16289C4.26031 6.49119 4.5231 6.74642 4.84738 6.78266C5.27798 6.83079 5.72276 6.83079 6.15336 6.78266C6.47764 6.74642 6.74043 6.49119 6.77882 6.16289C6.83035 5.72233 6.83035 5.27726 6.77882 4.83669C6.74043 4.5084 6.47764 4.25316 6.15336 4.21692Z" fill="#424242"/>
<path d="M9.94503 4.21692C9.51442 4.1688 9.06964 4.1688 8.63904 4.21692C8.31476 4.25316 8.05197 4.5084 8.01358 4.83669C7.96205 5.27726 7.96205 5.72233 8.01358 6.16289C8.05197 6.49119 8.31476 6.74642 8.63904 6.78266C9.06964 6.83079 9.51442 6.83079 9.94503 6.78266C10.2693 6.74642 10.5321 6.49119 10.5705 6.16289C10.622 5.72233 10.622 5.27726 10.5705 4.83669C10.5321 4.5084 10.2693 4.25316 9.94503 4.21692Z" fill="#424242"/>
<path d="M2.3617 8.00859C1.93109 7.96046 1.48631 7.96046 1.05571 8.00859C0.731435 8.04483 0.468645 8.30007 0.430248 8.62836C0.37872 9.06893 0.37872 9.514 0.430248 9.95456C0.468645 10.2829 0.731435 10.5381 1.05571 10.5743C1.48632 10.6225 1.93109 10.6225 2.3617 10.5743C2.68598 10.5381 2.94876 10.2829 2.98716 9.95456C3.03869 9.514 3.03869 9.06893 2.98716 8.62836C2.94876 8.30007 2.68598 8.04483 2.3617 8.00859Z" fill="#424242"/>
<path d="M6.15336 8.00859C5.72276 7.96046 5.27798 7.96046 4.84738 8.00859C4.5231 8.04483 4.26031 8.30007 4.22191 8.62836C4.17038 9.06893 4.17038 9.514 4.22191 9.95456C4.26031 10.2829 4.5231 10.5381 4.84738 10.5743C5.27798 10.6225 5.72276 10.6225 6.15336 10.5743C6.47764 10.5381 6.74043 10.2829 6.77882 9.95456C6.83035 9.514 6.83035 9.06893 6.77882 8.62836C6.74043 8.30007 6.47764 8.04483 6.15336 8.00859Z" fill="#424242"/>
<path d="M9.94503 8.00859C9.51442 7.96046 9.06964 7.96046 8.63904 8.00859C8.31476 8.04483 8.05197 8.30007 8.01358 8.62836C7.96205 9.06893 7.96205 9.514 8.01358 9.95456C8.05197 10.2829 8.31476 10.5381 8.63904 10.5743C9.06964 10.6225 9.51442 10.6225 9.94503 10.5743C10.2693 10.5381 10.5321 10.2829 10.5705 9.95456C10.622 9.514 10.622 9.06893 10.5705 8.62836C10.5321 8.30007 10.2693 8.04483 9.94503 8.00859Z" fill="#424242"/>
</svg>
