<svg width="31" height="23" viewBox="0 0 31 23" fill="none" xmlns="http://www.w3.org/2000/svg">
<path fill-rule="evenodd" clip-rule="evenodd" d="M30.0312 11.5C30.0312 10.7233 29.4016 10.0938 28.625 10.0938H2.375C1.59835 10.0938 0.96875 10.7233 0.96875 11.5C0.96875 12.2767 1.59835 12.9062 2.375 12.9062H28.625C29.4016 12.9062 30.0312 12.2767 30.0312 11.5Z" fill="#3C1361"/>
<path fill-rule="evenodd" clip-rule="evenodd" d="M30.0312 2.125C30.0312 1.34835 29.4016 0.71875 28.625 0.71875H2.375C1.59835 0.71875 0.96875 1.34835 0.96875 2.125C0.96875 2.90165 1.59835 3.53125 2.375 3.53125H28.625C29.4016 3.53125 30.0312 2.90165 30.0312 2.125Z" fill="#3C1361"/>
<path fill-rule="evenodd" clip-rule="evenodd" d="M30.0312 20.875C30.0312 20.0983 29.4016 19.4688 28.625 19.4688H2.375C1.59835 19.4688 0.96875 20.0983 0.96875 20.875C0.96875 21.6517 1.59835 22.2812 2.375 22.2812H28.625C29.4016 22.2812 30.0312 21.6517 30.0312 20.875Z" fill="#3C1361"/>
</svg>
