<svg width="96" height="78" viewBox="0 0 96 78" fill="none" xmlns="http://www.w3.org/2000/svg">
<path fill-rule="evenodd" clip-rule="evenodd" d="M23.9432 1.68036C39.9509 0.288841 56.0491 0.28884 72.0567 1.68035L79.7337 2.3477C87.0795 2.98626 93.0304 8.57612 94.1269 15.8676C96.4329 31.2026 96.4329 46.7962 94.1269 62.1311C93.9252 63.4726 93.5591 64.7565 93.0503 65.9625C92.7129 66.7622 91.672 66.8835 91.0882 66.2413L68.6126 41.5182C67.5971 40.4011 66.0181 39.9885 64.5859 40.4659L51.7209 44.7542L33.0577 23.7582C32.3601 22.9734 31.3698 22.511 30.3202 22.4802C29.2707 22.4494 28.2549 22.8527 27.5124 23.5952L2.53227 48.5753C1.76346 49.3441 0.452261 48.8548 0.390964 47.7693C-0.210067 37.1254 0.283965 26.4351 1.87306 15.8676C2.96953 8.57612 8.92043 2.98626 16.2662 2.3477L23.9432 1.68036ZM58.1666 23.7494C58.1666 19.5382 61.5804 16.1244 65.7916 16.1244C70.0028 16.1244 73.4166 19.5382 73.4166 23.7494C73.4166 27.9606 70.0028 31.3744 65.7916 31.3744C61.5804 31.3744 58.1666 27.9606 58.1666 23.7494Z" fill="#8B6EAE"/>
<path d="M2.05337 59.8376C1.77199 60.119 1.63833 60.516 1.69438 60.9099C1.75231 61.3172 1.81188 61.7242 1.87306 62.1311C2.96953 69.4226 8.92044 75.0125 16.2662 75.651L23.9432 76.3184C39.9509 77.7099 56.0491 77.7099 72.0567 76.3184L79.7337 75.651C81.8923 75.4634 83.9304 74.8482 85.7603 73.888C86.4537 73.5241 86.5705 72.6072 86.0437 72.0277L65.198 49.0975C64.8595 48.7251 64.3332 48.5876 63.8558 48.7467L51.7472 52.7829C50.3003 53.2652 48.7053 52.8388 47.6921 51.6989L30.9404 32.8533C30.4546 32.3068 29.609 32.282 29.092 32.799L2.05337 59.8376Z" fill="#8B6EAE"/>
</svg>
