<svg width="13" height="13" viewBox="0 0 13 13" fill="none" xmlns="http://www.w3.org/2000/svg">
<path fill-rule="evenodd" clip-rule="evenodd" d="M0.302002 6.50065C0.302002 3.07764 3.0769 0.302734 6.49992 0.302734C9.92293 0.302734 12.6978 3.07764 12.6978 6.50065C12.6978 9.92367 9.92293 12.6986 6.49992 12.6986C3.0769 12.6986 0.302002 9.92367 0.302002 6.50065ZM7.20825 3.66732C7.20825 4.05852 6.89112 4.37565 6.49992 4.37565C6.10872 4.37565 5.79158 4.05852 5.79158 3.66732C5.79158 3.27612 6.10872 2.95898 6.49992 2.95898C6.89112 2.95898 7.20825 3.27612 7.20825 3.66732ZM6.49992 5.61523C6.79332 5.61523 7.03117 5.85308 7.03117 6.14648V9.68815C7.03117 9.98155 6.79332 10.2194 6.49992 10.2194C6.20652 10.2194 5.96867 9.98155 5.96867 9.68815V6.14648C5.96867 5.85308 6.20652 5.61523 6.49992 5.61523Z" fill="#8B6EAE"/>
</svg>
