<svg width="17" height="15" viewBox="0 0 17 15" fill="none" xmlns="http://www.w3.org/2000/svg">
<path fill-rule="evenodd" clip-rule="evenodd" d="M6.70273 1.1615C7.56721 -0.103317 9.433 -0.103312 10.2975 1.16151L10.6394 1.6618C12.7817 4.79618 14.6223 8.12641 16.1365 11.6079L16.208 11.7721C16.7416 12.999 15.9354 14.3921 14.6057 14.5407C10.5479 14.9942 6.45226 14.9942 2.39447 14.5407C1.06483 14.3921 0.258622 12.999 0.792249 11.7721L0.863669 11.6079C2.37791 8.12642 4.21851 4.79617 6.36079 1.66179L6.70273 1.1615ZM9.29179 5.12567C9.29179 5.5629 8.93734 5.91734 8.50012 5.91734C8.06289 5.91734 7.70845 5.5629 7.70845 5.12567C7.70845 4.68844 8.06289 4.334 8.50012 4.334C8.93734 4.334 9.29179 4.68844 9.29179 5.12567ZM8.50012 7.30275C8.82804 7.30275 9.09387 7.56858 9.09387 7.8965V11.8548C9.09387 12.1828 8.82804 12.4486 8.50012 12.4486C8.1722 12.4486 7.90637 12.1828 7.90637 11.8548V7.8965C7.90637 7.56858 8.1722 7.30275 8.50012 7.30275Z" fill="#8B6EAE"/>
</svg>
