<svg width="16" height="13" viewBox="0 0 16 13" fill="none" xmlns="http://www.w3.org/2000/svg">
<path d="M4.99967 0.375C2.68229 0.375 0.708008 2.10775 0.708008 4.35816C0.708008 5.91062 1.43496 7.21765 2.39842 8.30035C3.35856 9.37934 4.5973 10.285 5.71715 11.043L7.64933 12.3509C7.86093 12.4941 8.13841 12.4941 8.35002 12.3509L10.2822 11.043C11.4021 10.285 12.6408 9.37934 13.6009 8.30035C14.5644 7.21765 15.2913 5.91062 15.2913 4.35816C15.2913 2.10775 13.3171 0.375 10.9997 0.375C9.80511 0.375 8.75397 0.935116 7.99968 1.65986C7.24538 0.935116 6.19423 0.375 4.99967 0.375Z" fill="#8B6EAE"/>
</svg>
