<svg width="10" height="12" viewBox="0 0 10 12" fill="none" xmlns="http://www.w3.org/2000/svg">
<path d="M1.81811 3.76161C1.69256 3.72849 1.58821 3.64131 1.53329 3.52366C1.47836 3.40601 1.47853 3.27004 1.53374 3.15252L2.50252 1.0908C2.57471 0.937156 2.72927 0.839146 2.89902 0.839356C3.06878 0.839566 3.22309 0.937958 3.29491 1.09178L3.72227 2.00717C3.73755 2.00116 3.75333 1.99595 3.76956 1.9916C6.30551 1.3121 8.91216 2.81704 9.59167 5.353C10.2712 7.88895 8.76623 10.4956 6.23027 11.1751C3.69432 11.8546 1.08767 10.3497 0.408168 7.81371C0.192088 7.00729 0.196949 6.19244 0.386202 5.43484C0.444762 5.20042 0.68227 5.05786 0.916691 5.11642C1.15111 5.17498 1.29367 5.41249 1.23511 5.64691C1.08094 6.26407 1.07669 6.92794 1.25335 7.58724C1.80779 9.65641 3.93464 10.8843 6.00381 10.3299C8.07298 9.77548 9.30091 7.64863 8.74648 5.57946C8.20111 3.54412 6.13433 2.32273 4.09756 2.81102L4.52876 3.73461C4.60057 3.88843 4.57692 4.06991 4.46808 4.20018C4.35925 4.33046 4.18487 4.38602 4.02073 4.34271L1.81811 3.76161Z" fill="#373737"/>
</svg>
