<svg width="145" height="27" viewBox="0 0 145 27" fill="none" xmlns="http://www.w3.org/2000/svg">
<g clip-path="url(#clip0_168_797)">
<path d="M56.9519 0.0363159L49.9978 26.6968H42.1271L37.8709 9.15789L33.4598 26.6968H25.5923L18.8247 0.0363159H25.7788L29.6177 19.4432L34.3718 0.0363159H41.5202L46.0815 19.4432L49.9583 0.0363159H56.9519Z" fill="#3C1361"/>
<path d="M56.6881 10.3279C57.511 8.68264 58.6321 7.41949 60.0514 6.53843C61.4734 5.64835 63.1211 5.18423 64.7991 5.20107C66.2942 5.20107 67.6055 5.50475 68.7329 6.11212C69.801 6.66225 70.702 7.48826 71.3422 8.50422V5.50422H77.8427V26.6969H71.3422V23.6969C70.6826 24.7089 69.7723 25.5335 68.6997 26.0905C67.5744 26.6969 66.2631 27 64.7659 27C63.099 27.0151 61.4635 26.5467 60.0577 25.6516C58.6384 24.7537 57.5174 23.4753 56.6945 21.8163C55.8716 20.1574 55.4596 18.2395 55.4585 16.0626C55.4543 13.8805 55.8642 11.969 56.6881 10.3279ZM69.9925 12.2637C69.5677 11.821 69.058 11.4684 68.4937 11.2269C67.9294 10.9854 67.3222 10.86 66.7084 10.8583C66.0945 10.8565 65.4866 10.9784 64.921 11.2166C64.3553 11.4548 63.8435 11.8045 63.4162 12.2448C62.5174 13.17 62.0675 14.4426 62.0665 16.0626C62.0654 17.6826 62.5153 18.9674 63.4162 19.9169C63.8378 20.365 64.3465 20.7225 64.9112 20.9674C65.4759 21.2124 66.0847 21.3396 66.7003 21.3414C67.3159 21.3432 67.9254 21.2194 68.4915 20.9777C69.0575 20.7361 69.5683 20.3815 69.9925 19.9358C70.8913 18.999 71.3412 17.7205 71.3422 16.1005C71.3433 14.4805 70.8934 13.2016 69.9925 12.2637Z" fill="#3C1361"/>
<path d="M81.0778 10.3279C81.9018 8.68263 83.0234 7.41947 84.4426 6.53842C85.8663 5.65028 87.5152 5.18887 89.1935 5.20895C90.5187 5.19282 91.8287 5.49213 93.0151 6.08211C94.1114 6.61634 95.0486 7.42798 95.7335 8.43632V0H102.232V26.6968H95.7319V23.6574C95.1023 24.6903 94.2015 25.5312 93.1273 26.0889C91.9989 26.6963 90.6871 27 89.192 27C87.511 27.0196 85.8606 26.5512 84.4411 25.6516C83.0218 24.7537 81.9002 23.4753 81.0763 21.8163C80.2523 20.1574 79.8403 18.2395 79.8403 16.0626C79.8403 13.8805 80.2528 11.9689 81.0778 10.3279ZM94.3838 12.2637C93.9589 11.8209 93.449 11.4683 92.8846 11.2268C92.3202 10.9853 91.7129 10.8599 91.0989 10.8581C90.4849 10.8564 89.8768 10.9782 89.3111 11.2165C88.7453 11.4547 88.2334 11.8044 87.8059 12.2447C86.9029 13.17 86.4514 14.4426 86.4514 16.0626C86.4514 17.6826 86.9008 18.9674 87.7996 19.9168C88.2214 20.3648 88.7303 20.7222 89.2951 20.967C89.8599 21.2118 90.4688 21.339 91.0844 21.3408C91.7001 21.3426 92.3097 21.2189 92.8759 20.9773C93.4421 20.7357 93.953 20.3813 94.3775 19.9358C95.2752 18.9989 95.7251 17.7205 95.7272 16.1005C95.7293 14.4805 95.281 13.2016 94.3822 12.2637H94.3838Z" fill="#3C1361"/>
<path d="M111.447 21.3411H120.647V26.6968H104.186V21.5305L113.003 10.8584H104.262V5.50421H120.455V10.6689L111.447 21.3411Z" fill="#3C1361"/>
<path d="M123.845 10.3279C124.668 8.68265 125.79 7.4195 127.21 6.53844C128.635 5.64608 130.287 5.18185 131.969 5.20107C133.464 5.20107 134.776 5.50476 135.904 6.11213C136.97 6.66299 137.869 7.48897 138.507 8.50423V5.50423H145.008V26.6969H138.499V23.6969C137.84 24.7089 136.931 25.5334 135.858 26.0905C134.73 26.6969 133.418 27 131.923 27C130.255 27.0161 128.617 26.5476 127.21 25.6516C125.791 24.7537 124.669 23.4753 123.845 21.8163C123.021 20.1574 122.609 18.2395 122.609 16.0627C122.609 13.8805 123.021 11.969 123.845 10.3279ZM137.15 12.2637C136.725 11.821 136.215 11.4684 135.651 11.2269C135.087 10.9854 134.479 10.86 133.866 10.8583C133.252 10.8565 132.644 10.9784 132.078 11.2166C131.512 11.4548 131.001 11.8045 130.573 12.2448C129.675 13.17 129.225 14.4427 129.225 16.0627C129.225 17.6827 129.675 18.9674 130.573 19.9169C130.995 20.365 131.504 20.7225 132.068 20.9674C132.633 21.2124 133.242 21.3396 133.857 21.3414C134.473 21.3432 135.083 21.2194 135.649 20.9778C136.215 20.7361 136.725 20.3815 137.15 19.9358C138.049 18.999 138.499 17.7205 138.499 16.1005C138.499 14.4805 138.049 13.2016 137.15 12.2637Z" fill="#3C1361"/>
<path d="M18.6495 22.6153C17.5073 22.936 16.3063 22.9881 15.1406 22.7673C13.9749 22.5464 12.8763 22.0588 11.9309 21.3426C10.9855 20.6264 10.2191 19.701 9.69183 18.6392C9.16452 17.5774 8.89065 16.4079 8.89171 15.2226C8.89171 15.1942 8.89171 15.1674 8.89171 15.1405H16.753L15.9864 12.1121H13.9524C13.9524 12.1026 13.9524 12.0932 13.9524 12.0837C13.9526 11.6004 14.0866 11.1267 14.3396 10.7148C14.5926 10.303 14.9547 9.96904 15.3859 9.75L12.9156 0H0V26.6842H19.6721L18.6495 22.6153ZM4.67028 8.34L4.64183 8.31158L9.94114 3.01737L9.97117 3.04421C10.6539 3.7506 11.0316 4.69661 11.023 5.67852C11.0144 6.66043 10.6202 7.59968 9.92515 8.29402C9.23014 8.98836 8.28998 9.38224 7.30713 9.39084C6.32428 9.39944 5.37736 9.02207 4.67028 8.34Z" fill="#3C1361"/>
</g>
<defs>
<clipPath id="clip0_168_797">
<rect width="145" height="27" fill="white"/>
</clipPath>
</defs>
</svg>
