<svg width="35" height="30" viewBox="0 0 35 30" fill="none" xmlns="http://www.w3.org/2000/svg">
<path fill-rule="evenodd" clip-rule="evenodd" d="M16.8676 0.085044C17.264 -0.0282234 17.6821 -0.0283273 18.0784 0.0846092C18.9209 0.324675 19.7712 0.547342 20.6243 0.770751C24.6303 1.81984 28.6988 2.88529 32.3184 5.84553L33.9853 7.20875C34.6614 7.7617 34.9997 8.58019 35 9.39881V20.8408C35 21.5179 34.4534 22.0668 33.7791 22.0668C33.1048 22.0668 32.5581 21.5179 32.5581 20.8408V12.7606L32.2929 12.9779C31.0387 14.0056 29.7301 14.8036 28.3888 15.4514C28.4529 15.6004 28.4884 15.7646 28.4884 15.9371V22.9559C28.4884 24.8083 27.3566 26.4711 25.6377 27.1439L19.1261 29.693C18.0804 30.1023 16.9196 30.1023 15.8739 29.693L9.36226 27.1439C7.64338 26.4711 6.51163 24.8083 6.51163 22.9559V15.9371C6.51163 15.7602 6.54895 15.5921 6.61611 15.4402C5.26438 14.7885 3.9456 13.9859 2.68156 12.9521L1.01468 11.5889C-0.337557 10.483 -0.338267 8.31497 1.0128 7.20795L2.70709 5.81969C6.30059 2.87528 10.3403 1.81619 14.3167 0.773726C15.1716 0.54959 16.0236 0.326217 16.8676 0.085044ZM32.5581 9.39979C32.5581 9.25253 32.4988 9.15529 32.4432 9.10982L30.7764 7.74661C27.2674 5.31237 24.1408 4.23877 20.1696 3.19095C19.2964 2.96055 18.3985 2.72363 17.4739 2.461C16.5452 2.72553 15.644 2.96359 14.7679 3.19502C10.8285 4.23565 7.39595 5.14239 4.25092 7.71934L2.55663 9.10759C2.50097 9.15319 2.4418 9.25058 2.44186 9.39783C2.44192 9.5451 2.50117 9.64233 2.55676 9.6878L4.22365 11.051C7.39533 13.6449 10.8592 14.5589 14.8304 15.6067C15.7037 15.8371 16.6015 16.074 17.5261 16.3366C18.4547 16.0721 19.3558 15.8341 20.2319 15.6027C24.1713 14.562 27.604 13.6552 30.7491 11.0783L32.4434 9.69003C32.499 9.64447 32.5581 9.5468 32.5581 9.39979ZM20.6833 18.0239C22.4737 17.5545 24.2769 17.0818 26.0465 16.4351V22.9559C26.0465 23.7979 25.5321 24.5537 24.7508 24.8595L18.2391 27.4086C17.7638 27.5947 17.2362 27.5947 16.7609 27.4086L10.2492 24.8595C9.46792 24.5537 8.95349 23.7979 8.95349 22.9559V16.4212C10.7422 17.0753 12.5653 17.5528 14.3757 18.0269C15.2288 18.2503 16.0791 18.4729 16.9215 18.713C17.3179 18.826 17.736 18.8258 18.1323 18.7126C18.9763 18.4714 19.8284 18.248 20.6833 18.0239Z" fill="#3C1361"/>
</svg>
