<svg width="15" height="15" viewBox="0 0 15 15" fill="none" xmlns="http://www.w3.org/2000/svg">
<path d="M8.11267 1.12236C7.8397 0.651922 7.16033 0.65192 6.88735 1.12236L4.9649 4.43546C4.83005 4.66785 4.59697 4.82644 4.3313 4.86656L0.728496 5.41072C0.12338 5.50212 -0.0888793 6.26613 0.382379 6.65657L3.06632 8.88018C3.31476 9.08602 3.43158 9.41069 3.37123 9.72763L2.66915 13.4146C2.55817 13.9974 3.17002 14.4503 3.695 14.1739L7.08749 12.3876C7.3457 12.2516 7.65432 12.2516 7.91253 12.3876L11.305 14.1739C11.83 14.4503 12.4419 13.9974 12.3309 13.4146L11.6288 9.72763C11.5684 9.41069 11.6853 9.08602 11.9337 8.88018L14.6176 6.65657C15.0889 6.26614 14.8766 5.50212 14.2715 5.41072L10.6687 4.86656C10.4031 4.82644 10.17 4.66785 10.0351 4.43546L8.11267 1.12236Z" fill="#8B6EAE"/>
</svg>
