<svg width="13" height="16" viewBox="0 0 13 16" fill="none" xmlns="http://www.w3.org/2000/svg">
<path fill-rule="evenodd" clip-rule="evenodd" d="M5.33847 2.01694C5.14254 2.04549 4.95064 2.09691 4.76669 2.17015C3.67164 2.60614 3.02199 3.73979 3.19946 4.90501L3.22403 5.06635C3.25448 5.26628 3.30698 5.46221 3.38057 5.65058L4.10486 7.50444C5.83796 7.38659 7.57759 7.3968 9.30956 7.53507L10.494 7.62962C11.2604 7.69081 11.8862 8.26693 12.0105 9.02567C12.2968 10.7744 12.2968 12.558 12.0105 14.3067C11.8862 15.0655 11.2604 15.6416 10.494 15.7028L9.30957 15.7973C7.43954 15.9466 5.56058 15.9466 3.69055 15.7973L2.50612 15.7028C1.73971 15.6416 1.11389 15.0655 0.989656 14.3067C0.703318 12.558 0.703318 10.7744 0.989656 9.02567C1.11389 8.26693 1.73971 7.69081 2.50612 7.62962L2.86758 7.60077L2.27449 6.08272C2.16899 5.81267 2.09372 5.53177 2.05007 5.24515L2.02549 5.08381C1.76483 3.37235 2.71903 1.70726 4.32742 1.06688C4.59761 0.959305 4.87947 0.88378 5.16724 0.841849C6.88034 0.592235 8.53925 1.55715 9.16924 3.16965L9.22863 3.32166C9.33414 3.59171 9.4094 3.87261 9.45305 4.15922L9.56495 4.8939C9.59786 5.11002 9.44935 5.3119 9.23323 5.34482L8.84191 5.40442C8.62579 5.43734 8.4239 5.28882 8.39099 5.0727L8.27909 4.33802C8.24864 4.1381 8.19614 3.94216 8.12255 3.7538L8.06316 3.60178C7.63424 2.50394 6.5048 1.84699 5.33847 2.01694ZM6.50004 10.4787C5.8442 10.4787 5.31254 11.0104 5.31254 11.6662C5.31254 12.322 5.8442 12.8537 6.50004 12.8537C7.15588 12.8537 7.68754 12.322 7.68754 11.6662C7.68754 11.0104 7.15588 10.4787 6.50004 10.4787Z" fill="#8B6EAE"/>
</svg>
