<svg width="111" height="98" viewBox="0 0 111 98" fill="none" xmlns="http://www.w3.org/2000/svg">
<g clip-path="url(#clip0_742_8508)">
<path d="M111 77.7643C110.589 79.47 110.337 81.232 109.74 82.8749C106.46 92.0845 98.4414 97.8628 88.6749 97.995C83.7568 98.0612 79.3063 96.491 75.3599 93.5654C74.742 93.08 73.9744 92.823 73.1877 92.8382C53.9708 92.8624 34.7518 92.8624 15.5305 92.8382C8.99735 92.8382 4.17876 89.9755 1.34 84.0319C0.438275 82.0989 -0.0151178 79.9884 0.0134806 77.8569C0.0134806 56.8989 0.0134806 35.9409 0.0134806 14.983C0.040011 6.44772 6.50017 0.0677663 15.2287 0.0413209C35.5289 -0.0137736 55.8302 -0.0137736 76.1326 0.0413209C84.9772 0.0677663 91.2715 6.52375 91.2848 15.3664C91.3025 27.6437 91.3025 39.9232 91.2848 52.2048V53.1734C94.0207 54.1651 96.7003 54.8692 99.1113 56.0923C105.833 59.4972 109.564 65.1433 110.768 72.5083C110.821 72.8223 110.921 73.1298 110.997 73.4405L111 77.7643ZM42.3527 56.2774C42.8104 55.7023 43.0492 55.3353 43.3476 55.0312C50.7076 47.6529 58.0698 40.2791 65.4342 32.9096C67.3245 31.0188 68.6908 31.0221 70.601 32.9295C75.3035 37.6103 80.0038 42.2944 84.7019 46.9819C84.9639 47.2397 85.2392 47.481 85.6139 47.8248C85.6471 47.4678 85.6703 47.329 85.6703 47.1868C85.6703 36.5293 85.7134 25.8719 85.6537 15.2111C85.6239 9.73356 81.6111 5.78658 76.0663 5.77666C55.7992 5.7414 35.5333 5.7414 15.2685 5.77666C9.55117 5.77666 5.6512 9.79306 5.6512 15.4953C5.6512 28.8899 5.6512 42.2845 5.6512 55.6791C5.6512 55.9799 5.68768 56.2774 5.71089 56.5783L5.97288 56.7303C6.18995 56.4034 6.42812 56.0909 6.68588 55.7948C11.7466 50.6622 16.8139 45.5362 21.8878 40.4168C23.6222 38.6714 25.0814 38.6681 26.8125 40.4168C31.7096 45.307 36.6012 50.2071 41.4872 55.1171C41.7957 55.4847 42.0794 55.8723 42.3362 56.2774H42.3527ZM67.6959 38.5822C67.5799 38.7177 67.3179 39.0648 67.0128 39.3722C59.6506 46.7461 52.2851 54.1177 44.9162 61.4872C43.1785 63.2227 41.5999 63.2293 39.8755 61.5136C34.9872 56.6455 30.1089 51.7784 25.2406 46.9125C25.0016 46.5937 24.8085 46.2432 24.6669 45.8712C24.196 46.2778 24.0799 46.3604 23.9804 46.4596C18.0111 52.4318 12.0594 58.4129 6.12543 64.4028C5.81974 64.776 5.65332 65.2433 5.65451 65.7251C5.61803 69.5398 5.63793 73.3579 5.63462 77.1726C5.63462 84.0451 10.0751 87.3706 15.9483 87.4202C33.3191 87.559 50.6932 87.4698 68.064 87.4665C68.3658 87.4665 68.6709 87.4334 69.0589 87.4103C65.5536 80.7526 64.7477 73.9826 67.7026 67.0639C70.6574 60.1451 76.0696 55.9105 83.3854 53.9139L67.6959 38.5822ZM88.4759 59.0542C79.24 58.998 71.838 66.4292 71.7319 75.7115C71.6257 85.169 79.8469 92.2696 88.33 92.2961C97.5957 92.3258 105.094 85.0632 105.173 75.8636C105.201 73.661 104.789 71.4749 103.961 69.4328C103.132 67.3906 101.905 65.5332 100.349 63.9687C98.7934 62.4043 96.941 61.164 94.8997 60.3203C92.8584 59.4765 90.6691 59.0461 88.4593 59.0542H88.4759Z" fill="#B8A2D2"/>
<path d="M41.8419 39.3936C40.3288 39.3981 38.8486 38.9539 37.5895 38.1175C36.3304 37.2812 35.3492 36.0905 34.7709 34.6968C34.1925 33.3031 34.0431 31.7694 34.3415 30.2908C34.64 28.8122 35.3729 27.4555 36.447 26.3932C37.5211 25.331 38.8879 24.6111 40.3736 24.3253C41.8592 24.0395 43.3966 24.2005 44.7902 24.788C46.1837 25.3755 47.3705 26.3628 48.1996 27.6244C49.0287 28.8861 49.4626 30.365 49.4462 31.8732C49.4313 33.8734 48.6235 35.7867 47.1989 37.1955C45.7744 38.6044 43.8487 39.3945 41.8419 39.3936Z" fill="#B8A2D2"/>
<path d="M85.3053 73.3043C84.8841 73.7803 84.4994 74.296 84.0418 74.7191C82.8413 75.8695 80.9775 75.9521 79.9296 74.934C78.7888 73.8332 78.8352 71.9325 80.0755 70.6763C82.1051 68.6268 84.1479 66.5905 86.204 64.5674C87.5902 63.2022 89.1091 63.0964 90.5152 64.4286C92.7371 66.5376 94.9027 68.7094 97.0251 70.9209C97.538 71.4675 97.8175 72.1915 97.8045 72.9399C97.7915 73.6882 97.487 74.4021 96.9555 74.9307C96.3867 75.4114 95.6589 75.6641 94.9136 75.6397C94.1683 75.6152 93.4587 75.3154 92.9228 74.7985C92.4354 74.339 92.0009 73.8266 91.5433 73.3374L91.2912 73.4828V76.1273C91.2912 78.9702 91.2912 81.8164 91.2912 84.6593C91.2912 86.3353 90.0609 87.6344 88.5122 87.6608C86.9634 87.6873 85.6303 86.4014 85.6203 84.6857C85.5938 81.304 85.6203 77.919 85.6203 74.534V73.5026L85.3053 73.3043Z" fill="#B8A2D2"/>
</g>
<defs>
<clipPath id="clip0_742_8508">
<rect width="111" height="98" fill="white"/>
</clipPath>
</defs>
</svg>
