<svg width="12" height="12" viewBox="0 0 12 12" fill="none" xmlns="http://www.w3.org/2000/svg">
<path d="M11.197 4.79702C11.068 4.69769 10.9449 4.59039 10.8283 4.47569C10.7999 4.4483 10.7787 4.4138 10.7668 4.37547C10.7548 4.33714 10.7525 4.29627 10.76 4.25674C10.8023 4.04865 10.8571 3.84352 10.9239 3.64252C11.0134 3.3683 11.0505 3.0785 11.0331 2.78944C11.0161 2.58796 10.9386 2.39716 10.8117 2.24406C10.6847 2.09096 10.5147 1.98331 10.3258 1.93636C10.0461 1.86014 9.75712 1.82756 9.46825 1.83968C9.31527 1.84059 9.16255 1.82631 9.01218 1.79702C8.98696 1.79198 8.96311 1.78121 8.94235 1.76548C8.92158 1.74975 8.90439 1.72945 8.89201 1.70603C8.79348 1.49778 8.71039 1.28198 8.64349 1.06053C8.56248 0.792096 8.43165 0.542834 8.25842 0.32688C8.13997 0.184336 7.98378 0.0813299 7.80939 0.0307505C7.635 -0.0198289 7.45016 -0.0157352 7.27799 0.0425193C6.99631 0.142802 6.73377 0.293922 6.50239 0.488965C6.3757 0.584903 6.24033 0.667759 6.0982 0.736358C6.07256 0.751002 6.04433 0.760066 6.01522 0.762999C5.98612 0.765932 5.95674 0.762673 5.92888 0.75342C5.72574 0.648324 5.53199 0.524613 5.34991 0.383752C5.17205 0.245404 4.97497 0.136092 4.76548 0.0595809C4.56404 -0.02003 4.34249 -0.0253514 4.13774 0.0445037C3.933 0.114359 3.75743 0.25517 3.64031 0.443467C3.51784 0.633793 3.42048 0.840378 3.35082 1.05769C3.28712 1.26286 3.21235 1.46412 3.12688 1.66053C3.10855 1.7003 3.08095 1.73466 3.04661 1.76048C3.01227 1.78631 2.97226 1.80278 2.93025 1.8084C2.76025 1.834 2.58856 1.84541 2.41682 1.84252C2.17061 1.83908 1.92516 1.87163 1.68764 1.9392C1.49807 1.9859 1.32733 2.09333 1.19946 2.24636C1.0716 2.3994 0.993042 2.59033 0.974853 2.79228C0.953196 2.98267 0.966166 3.17561 1.01309 3.361C1.06771 3.59418 1.12233 3.82735 1.19606 4.05484C1.24096 4.16325 1.24571 4.28514 1.2094 4.39698C1.17309 4.50883 1.09829 4.60271 0.999432 4.66053C0.74737 4.83198 0.513071 5.0302 0.300296 5.252C0.204336 5.34924 0.128064 5.46552 0.0759834 5.59397C0.0239029 5.72242 -0.00292969 5.86044 -0.00292969 5.99987C-0.00292969 6.13929 0.0239029 6.27731 0.0759834 6.40576C0.128064 6.53421 0.204336 6.65049 0.300296 6.74773C0.478483 6.93525 0.670215 7.10827 0.873806 7.26527C1.31077 7.63209 1.28619 7.54963 1.14691 8.11835C1.07226 8.37571 1.01387 8.63788 0.972122 8.90318C0.932795 9.15245 0.985177 9.408 1.11881 9.61883C1.25245 9.82966 1.45752 9.98028 1.6931 10.0406C1.91154 10.101 2.13622 10.1335 2.3622 10.1373C2.5446 10.1341 2.72702 10.1426 2.9084 10.1629C2.9584 10.1664 3.00651 10.1842 3.04745 10.2143C3.0884 10.2444 3.1206 10.2856 3.14053 10.3335C3.19242 10.4586 3.24704 10.5809 3.28801 10.7089C3.36344 10.9745 3.46983 11.2294 3.6048 11.4681C3.72611 11.6955 3.92743 11.8649 4.16635 11.9408C4.40527 12.0166 4.66314 11.9929 4.88564 11.8747C5.18926 11.7128 5.47812 11.5224 5.74864 11.306C5.96985 11.1354 6.16648 11.2349 6.35765 11.3686C6.55877 11.5235 6.76852 11.6659 6.98578 11.7951C7.13568 11.8842 7.30077 11.9422 7.47189 11.9657C7.64377 11.9864 7.81777 11.9569 7.97449 11.8805C8.13121 11.8042 8.26449 11.6841 8.35947 11.5335C8.52095 11.2779 8.64347 10.9978 8.72269 10.7032C8.76366 10.5809 8.81828 10.4643 8.86197 10.342C8.88105 10.2871 8.91594 10.2396 8.96187 10.206C9.0078 10.1724 9.06256 10.1544 9.11868 10.1544C9.39178 10.1117 9.66488 10.1544 9.93798 10.1089C10.1015 10.0925 10.2627 10.0572 10.4186 10.0037C10.6289 9.92582 10.8068 9.77442 10.9218 9.57528C11.0369 9.37615 11.082 9.14163 11.0495 8.91171C11.0167 8.64982 10.96 8.39178 10.8802 8.1411C10.8447 8.01882 10.8228 7.8937 10.7928 7.77427C10.7747 7.71621 10.775 7.65361 10.7937 7.59575C10.8123 7.53788 10.8484 7.48781 10.8966 7.45295C10.9676 7.39323 11.0304 7.32498 11.1014 7.26811C11.5146 7.01484 11.8376 6.62863 12.0217 6.16764V5.82641C11.8694 5.39431 11.5779 5.03054 11.197 4.79702ZM8.37312 4.72878C8.35853 4.8692 8.29428 4.99894 8.19288 5.09276L5.80872 7.58091C5.77473 7.61482 5.7428 7.65091 5.71313 7.68897C5.65945 7.73898 5.59636 7.77681 5.52787 7.80004C5.45937 7.82328 5.38699 7.83141 5.31531 7.82392C5.24364 7.81643 5.17425 7.79348 5.11156 7.75654C5.04887 7.7196 4.99425 7.66947 4.95118 7.60934L3.77686 6.38091C3.70037 6.31249 3.64634 6.22088 3.62234 6.1189C3.59835 6.01691 3.60558 5.90967 3.64304 5.81219C3.67141 5.71591 3.72747 5.63101 3.80366 5.56897C3.87985 5.50693 3.97249 5.47073 4.06907 5.46527C4.14711 5.45736 4.22585 5.46868 4.29891 5.49832C4.37197 5.52796 4.43731 5.57509 4.48965 5.63588C4.76275 5.92024 5.03584 6.2046 5.29256 6.48897C5.35537 6.55437 5.38814 6.55152 5.44823 6.48897C5.60389 6.31266 7.06498 4.79987 7.53744 4.30224C7.61351 4.2397 7.70419 4.19936 7.80018 4.18537C7.89616 4.17138 7.994 4.18423 8.08364 4.22261C8.17449 4.26806 8.25057 4.34021 8.3025 4.43016C8.35443 4.5201 8.37993 4.62391 8.37585 4.72878H8.37312Z" fill="#53317D"/>
</svg>
