<svg width="46" height="15" viewBox="0 0 46 15" fill="none" xmlns="http://www.w3.org/2000/svg">
<path d="M19.9331 14.784H16.2068L18.5375 0.263672H22.2638L19.9331 14.784Z" fill="#3C1361"/>
<path d="M33.4404 0.618352C32.3745 0.204658 31.2413 -0.00501697 30.0991 9.11313e-05C26.4193 9.11313e-05 23.8269 1.97723 23.8121 4.80389C23.7818 6.88948 25.6677 8.04814 27.078 8.74333C28.5195 9.45382 29.0099 9.91775 29.0099 10.5508C28.9952 11.5241 27.8448 11.9718 26.7721 11.9718C25.2841 11.9718 24.4869 11.7401 23.2763 11.1992L22.7855 10.9675L22.2629 14.2284C23.1369 14.6293 24.7468 14.9857 26.4188 15.001C30.3286 15.001 32.8741 13.0545 32.9045 10.042C32.9192 8.38878 31.9234 7.12214 29.7767 6.08722C28.4735 5.42308 27.675 4.97491 27.675 4.29501C27.6907 3.67721 28.3503 3.04366 29.8213 3.04366C31.0329 3.0126 31.9229 3.30598 32.5972 3.59981L32.9344 3.75415L33.4404 0.618815V0.618352Z" fill="#3C1361"/>
<path d="M38.3938 9.64047C38.7011 8.80623 39.8818 5.57775 39.8818 5.57775C39.8662 5.6088 40.1882 4.72822 40.3722 4.18735L40.6325 5.43871C40.6325 5.43871 41.3381 8.91422 41.4899 9.64047H38.3938ZM42.9936 0.264135H40.11C39.2213 0.264135 38.5461 0.526456 38.1624 1.46914L32.6289 14.7849H36.5387L37.3207 12.6066H42.1044C42.2116 13.1164 42.5492 14.7849 42.5492 14.7849H45.9991L42.9936 0.263672V0.264135Z" fill="#3C1361"/>
<path d="M13.0945 0.263159L9.44507 10.1646L9.04627 8.15687C8.37149 5.83955 6.25559 3.32202 3.89453 2.0702L7.23718 14.7691H11.1773L17.0342 0.262695L13.0945 0.263159Z" fill="#3C1361"/>
<path d="M6.05652 0.263622H0.0611769L0 0.556531C4.67659 1.76154 7.77361 4.66606 9.04637 8.15733L7.74325 1.48346C7.52844 0.556531 6.8693 0.293284 6.05652 0.262695V0.263622Z" fill="#7F4CB5"/>
</svg>
